<?xml version="1.0" encoding="UTF-8" standalone="no"?>
<svg
   xmlns:dc="http://purl.org/dc/elements/1.1/"
   xmlns:cc="http://creativecommons.org/ns#"
   xmlns:rdf="http://www.w3.org/1999/02/22-rdf-syntax-ns#"
   xmlns:svg="http://www.w3.org/2000/svg"
   xmlns="http://www.w3.org/2000/svg"
   xmlns:sodipodi="http://sodipodi.sourceforge.net/DTD/sodipodi-0.dtd"
   xmlns:inkscape="http://www.inkscape.org/namespaces/inkscape"
   version="1.1"
   id="Слой_1"
   x="0px"
   y="0px"
   viewBox="5 5 65 65"
   style="enable-background:new 0 0 75 75;"
   xml:space="preserve"
   sodipodi:docname="KMK.svgz"><metadata
   id="metadata41"><rdf:RDF><cc:Work
       rdf:about=""><dc:format>image/svg+xml</dc:format><dc:type
         rdf:resource="http://purl.org/dc/dcmitype/StillImage" /></cc:Work></rdf:RDF></metadata><defs
   id="defs39" /><sodipodi:namedview
   pagecolor="#ffffff"
   bordercolor="#666666"
   borderopacity="1"
   objecttolerance="10"
   gridtolerance="10"
   guidetolerance="10"
   inkscape:pageopacity="0"
   inkscape:pageshadow="2"
   inkscape:window-width="640"
   inkscape:window-height="480"
   id="namedview37" />
<style
   type="text/css"
   id="style2">
	.st0{fill:#5C6771;}
</style>
<g
   id="g34">
	<path
   class="st0"
   d="M68.46,68.46H6.54V6.54h61.92V68.46z M7.27,67.73h60.47V7.27H7.27V67.73z"
   id="path4" />
	<g
   id="g32">
		<g
   id="g12">
			<path
   class="st0"
   d="M19.22,34.19l-1.63,1.88v3.99H14.3V25.82h3.29v5.56l4.71-5.56h3.88l-4.79,5.79l5.04,8.45h-3.84L19.22,34.19z     "
   id="path6" />
			<path
   class="st0"
   d="M40.49,33.42l-1.34,2.56l-1.24,2.17h-2.33l-1.26-2.25l-1.28-2.46h-0.08v6.61h-3.29V25.82h3.02l2.35,4.63     l1.67,3.39h0.12l1.74-3.51l2.25-4.5h3.02v14.24h-3.28v-6.63H40.49z"
   id="path8" />
			<path
   class="st0"
   d="M52.89,34.19l-1.63,1.88v3.99h-3.29V25.82h3.29v5.56l4.71-5.56h3.88l-4.79,5.79l5.04,8.45h-3.84L52.89,34.19     z"
   id="path10" />
		</g>
		<g
   id="g30">
			<path
   class="st0"
   d="M14.23,43.86h1.51v2h0.07l1.41-2h1.79l-1.89,2.45L19.04,49h-1.79l-1.44-2.19h-0.07V49h-1.51V43.86z"
   id="path14" />
			<path
   class="st0"
   d="M20.15,43.86h2l1.17,3.33h0.07l1.14-3.33h2.04V49h-1.46v-3.09h-0.07L23.95,49h-1.17l-1.09-3.08h-0.07V49     h-1.46V43.86z"
   id="path16" />
			<path
   class="st0"
   d="M28.06,43.86h1.51v2h0.07l1.41-2h1.79l-1.89,2.45L32.87,49h-1.79l-1.44-2.19h-0.07V49h-1.51V43.86z"
   id="path18" />
			<path
   class="st0"
   d="M33.98,47.36h0.65c0.01,0.78,0.56,1.25,1.51,1.25c0.83,0,1.31-0.36,1.31-0.93c0-0.7-0.7-0.81-1.46-0.93     c-0.91-0.14-1.92-0.38-1.92-1.48c0-0.91,0.7-1.51,1.92-1.51c1.24,0,2,0.65,2,1.72h-0.63c0-0.72-0.5-1.14-1.37-1.14     c-0.82,0-1.26,0.35-1.26,0.9c0,0.67,0.67,0.79,1.42,0.9c0.92,0.15,1.96,0.35,1.96,1.5c0,0.95-0.72,1.54-1.97,1.54     C34.8,49.18,33.98,48.48,33.98,47.36z"
   id="path20" />
			<path
   class="st0"
   d="M40.77,44.52H39.1v-0.57h4v0.57h-1.68V49h-0.65V44.52z"
   id="path22" />
			<path
   class="st0"
   d="M44.53,43.94h2.2c1.1,0,1.82,0.6,1.82,1.54c0,0.86-0.67,1.46-1.61,1.51h-0.09L48.69,49h-0.83l-1.75-1.98     h-0.93V49h-0.65V43.94z M46.73,46.45c0.72,0,1.17-0.37,1.17-0.97c0-0.59-0.44-0.96-1.17-0.96h-1.55v1.93H46.73z"
   id="path24" />
			<path
   class="st0"
   d="M49.96,46.47c0-1.58,1.13-2.71,2.73-2.71c1.6,0,2.73,1.13,2.73,2.71c0,1.59-1.13,2.71-2.73,2.71     C51.1,49.18,49.96,48.06,49.96,46.47z M54.77,46.47c0-1.24-0.86-2.13-2.07-2.13s-2.08,0.89-2.08,2.13c0,1.24,0.87,2.14,2.08,2.14     S54.77,47.71,54.77,46.47z"
   id="path26" />
			<path
   class="st0"
   d="M58.29,47.15l-1.83-3.21h0.69l1.44,2.58h0.07l1.41-2.58h0.7l-1.82,3.21V49h-0.66V47.15z"
   id="path28" />
		</g>
	</g>
</g>
</svg>
