<svg xmlns="http://www.w3.org/2000/svg" width="328" height="50" viewBox="0 0 328 50" fill="none">
<path d="M55.0781 27.4973C56.4891 23.263 54.2004 18.6866 49.9661 17.2756C45.7318 15.8645 41.1554 18.1533 39.7443 22.3876C38.3333 26.6219 40.622 31.1983 44.8563 32.6093C49.0906 34.0204 53.6671 31.7316 55.0781 27.4973Z" fill="#3E3E3E"/>
<path d="M18.0042 16.7941C22.4674 16.7941 26.0856 13.1759 26.0856 8.71272C26.0856 4.2495 22.4674 0.631348 18.0042 0.631348C13.541 0.631348 9.92285 4.2495 9.92285 8.71272C9.92285 13.1759 13.541 16.7941 18.0042 16.7941Z" fill="#3E3E3E"/>
<path d="M37.7965 33.0048C36.43 33.0436 35.09 33.3911 33.8768 34.0211L32.1347 31.1176C33.1518 30.4027 33.9819 29.4535 34.5546 28.35C35.1274 27.2466 35.426 26.0215 35.4253 24.7783C35.4291 23.637 35.169 22.5103 34.6653 21.4862C34.1617 20.4621 33.4281 19.5683 32.5218 18.8745L34.5543 15.9711C36.3658 16.6801 38.38 16.6695 40.184 15.9415C41.988 15.2136 43.4454 13.8234 44.2576 12.0556C45.0698 10.2879 45.1753 8.27654 44.5525 6.43356C43.9297 4.59057 42.6257 3.0555 40.9077 2.14282C39.1897 1.23013 37.1878 1.00893 35.312 1.52453C33.4362 2.04012 31.8285 3.25349 30.8184 4.91604C29.8082 6.5786 29.4721 8.56449 29.8787 10.4669C30.2854 12.3693 31.4041 14.0442 33.0057 15.1484L31.0701 17.9551C30.0618 17.455 28.9533 17.1903 27.8279 17.1808C25.8801 17.2006 24.0114 17.9537 22.5943 19.2901C21.1772 20.6265 20.3158 22.4479 20.182 24.3912H16.1655C16.1001 22.8075 15.5707 21.278 14.6431 19.9928C13.7155 18.7076 12.4307 17.7233 10.9483 17.1623C9.46588 16.6013 7.85131 16.4883 6.30523 16.8374C4.75916 17.1865 3.34978 17.9823 2.25225 19.1258C1.15473 20.2693 0.417477 21.7102 0.132127 23.2693C-0.153223 24.8284 0.0259156 26.437 0.647276 27.8951C1.26864 29.3532 2.30482 30.5966 3.62703 31.4706C4.94923 32.3447 6.49916 32.8109 8.08415 32.8113C9.98336 32.8175 11.8232 32.1499 13.2764 30.9271C14.7296 29.7043 15.7019 28.0056 16.0203 26.1333H20.2304C20.5548 27.886 21.4825 29.4698 22.8526 30.6101C24.2226 31.7503 25.9486 32.375 27.7311 32.3758C28.6552 32.3689 29.5716 32.2053 30.441 31.8918L32.3283 34.9889C31.4817 35.7541 30.8037 36.687 30.3371 37.7284C29.8706 38.7697 29.6258 39.8967 29.6183 41.0378C29.6089 42.634 30.0724 44.1973 30.9503 45.5304C31.8283 46.8636 33.0814 47.9068 34.5515 48.5286C36.0217 49.1504 37.6431 49.3229 39.2112 49.0244C40.7792 48.7258 42.2238 47.9695 43.3626 46.851C44.5013 45.7324 45.2834 44.3016 45.61 42.7391C45.9366 41.1767 45.7931 39.5525 45.1978 38.0714C44.6024 36.5903 43.5817 35.3188 42.2645 34.4171C40.9473 33.5154 39.3926 33.024 37.7965 33.0048Z" fill="#DC4405"/>
<path d="M18.0042 49.3129C22.4674 49.3129 26.0856 45.6947 26.0856 41.2315C26.0856 36.7683 22.4674 33.1501 18.0042 33.1501C13.541 33.1501 9.92285 36.7683 9.92285 41.2315C9.92285 45.6947 13.541 49.3129 18.0042 49.3129Z" fill="#3E3E3E"/>
<path d="M80.6228 48.2482H72.1543V10.1158C72.1581 7.97366 73.0108 5.92036 74.5255 4.40564C76.0402 2.89092 78.0935 2.03826 80.2357 2.03442H92.8658V9.4867H85.0748C84.496 9.48479 83.9225 9.59738 83.3873 9.818C82.8522 10.0386 82.366 10.3629 81.9567 10.7722C81.5474 11.1815 81.2231 11.6677 81.0025 12.2029C80.7819 12.738 80.6693 13.3115 80.6712 13.8903V22.262H91.9948V29.7627H80.6712L80.6228 48.2482Z" fill="#3E3E3E"/>
<path d="M100.173 48.2484V2.08301H108.254V48.2968L100.173 48.2484Z" fill="#3E3E3E"/>
<path d="M118.029 2.08301H129.837C134.579 2.08301 138.112 3.00244 140.289 4.88971C142.467 6.77698 143.58 9.72885 143.58 13.7937C143.58 16.5037 142.999 18.7297 141.838 20.5201C141.323 21.3807 140.628 22.1201 139.801 22.688C138.975 23.2558 138.035 23.6388 137.047 23.8108V24.1979C139.66 24.827 141.548 26.0852 142.757 27.8272C143.87 29.5693 144.499 31.9405 144.499 34.9892C144.499 39.1992 143.386 42.4414 141.112 44.8126C138.838 47.1838 135.789 48.3936 131.918 48.3936H118.029V2.08301ZM126.062 20.6169H129.982C131.821 20.6169 133.079 20.133 133.805 19.1168C134.531 18.1006 134.918 16.6972 134.918 14.7132C134.918 12.8259 134.482 11.4226 133.66 10.5999C132.837 9.77724 131.482 9.34172 129.643 9.34172H126.014V20.5685L126.062 20.6169ZM126.062 27.7789V40.6994H130.466C131.211 40.7366 131.955 40.6133 132.648 40.3378C133.341 40.0623 133.966 39.641 134.482 39.1024C135.305 37.9894 135.789 36.2957 135.789 34.0697C135.789 29.9565 133.95 27.924 130.369 27.924H126.111L126.062 27.7789Z" fill="#3E3E3E"/>
<path d="M171.598 48.2484H150.79V2.08301H171.598V9.53529H159.355V20.5685H170.679V28.0208H159.355V40.7961H171.598V48.2484Z" fill="#3E3E3E"/>
<path d="M186.89 30.2468V48.2484H178.276V2.08301H189.503C194.294 2.08301 197.778 3.19601 200.053 5.47041C202.327 7.7448 203.44 11.1806 203.44 15.8262C203.44 21.6331 201.504 25.7464 197.536 28.0692L206.392 48.2968H197.246L189.939 30.2952H186.89V30.2468ZM186.89 22.8429H189.068C191.1 22.8429 192.503 22.2622 193.471 21.1008C194.439 19.9394 194.778 18.1974 194.778 15.9713C194.778 13.5518 194.294 11.9549 193.374 10.9386C192.455 9.92242 190.955 9.4385 188.971 9.4385H186.793V22.8913L186.89 22.8429Z" fill="#3E3E3E"/>
<path d="M227.152 48.2487L218.345 8.90649H217.958C218.368 11.6784 218.578 14.4762 218.587 17.2782V48.2487H210.554V2.1317H223.765L231.604 38.3769H231.894L239.734 2.03491H253.187V48.2971H244.96V16.9879C244.963 14.3366 245.108 11.6874 245.396 9.05167H245.105L236.298 48.2971H227.152V48.2487Z" fill="#DC4405"/>
<path d="M262.962 48.2484V2.08301H271.043V48.2968L262.962 48.2484Z" fill="#DC4405"/>
<path d="M298.433 48.2482L291.803 31.65L285.706 48.2482H276.705L287.254 24.2461L277.479 2.03442H286.141L292.239 17.1809L297.465 2.03442H306.466L296.691 24.5848L303.611 40.0217C304.03 40.8971 304.221 41.8647 304.165 42.8339C304.11 43.8031 303.809 44.7423 303.292 45.5639C302.775 46.3855 302.058 47.0627 301.208 47.5321C300.359 48.0015 299.404 48.2479 298.433 48.2482Z" fill="#DC4405"/>
<path d="M328 7.2123C328.007 8.17779 327.821 9.13488 327.453 10.0275C327.085 10.9202 326.542 11.7305 325.857 12.4109C325.172 13.0914 324.359 13.6284 323.463 13.9904C322.568 14.3525 321.61 14.5323 320.645 14.5194C319.675 14.5309 318.713 14.3508 317.813 13.9895C316.913 13.6281 316.093 13.0926 315.401 12.4137C314.708 11.7348 314.157 10.9258 313.778 10.0332C313.399 9.14063 313.2 8.18198 313.192 7.2123C313.202 6.2476 313.403 5.29437 313.783 4.40797C314.164 3.52158 314.717 2.71968 315.411 2.04885C316.104 1.37802 316.924 0.851626 317.822 0.500245C318.721 0.148865 319.68 -0.0205035 320.645 0.00197779C321.604 -0.0186597 322.558 0.152667 323.45 0.505889C324.342 0.859111 325.155 1.3871 325.84 2.05884C326.525 2.73058 327.069 3.53251 327.44 4.4175C327.811 5.3025 328.002 6.25271 328 7.2123ZM314.983 7.2123C314.96 7.96245 315.089 8.70951 315.361 9.40891C315.633 10.1083 316.043 10.7457 316.567 11.2831C317.091 11.8205 317.718 12.247 318.41 12.5369C319.102 12.8269 319.846 12.9745 320.596 12.9709C323.742 12.9709 326.113 10.4545 326.113 7.26069C326.113 4.06686 323.79 1.45372 320.596 1.45372C319.847 1.45413 319.105 1.60444 318.415 1.89581C317.724 2.18718 317.099 2.61371 316.576 3.1503C316.053 3.68689 315.643 4.3227 315.369 5.0203C315.095 5.71789 314.964 6.46318 314.983 7.2123ZM319.532 10.9868H317.838V3.77651C318.732 3.62136 319.64 3.55651 320.548 3.58294C321.854 3.58294 322.484 3.77651 323.064 4.16364C323.311 4.34646 323.507 4.58893 323.634 4.86828C323.761 5.14763 323.814 5.45467 323.79 5.76056C323.79 6.53482 323.161 7.16391 322.29 7.45426V7.55104C323.016 7.84139 323.403 8.3253 323.597 9.29313C323.658 9.94028 323.856 10.5671 324.177 11.132H322.338C322.062 10.5821 321.867 9.99541 321.758 9.38991C321.612 8.61565 321.177 8.27691 320.258 8.27691H319.483L319.532 10.9868ZM319.532 6.82517H320.306C321.225 6.82517 322 6.53482 322 5.80895C322 5.17986 321.516 4.69595 320.451 4.69595C320.143 4.71219 319.836 4.7445 319.532 4.79273V6.82517Z" fill="#DC4405"/>
</svg>